<svg width="20" height="20" viewBox="0 0 20 20" fill="none" xmlns="http://www.w3.org/2000/svg">
<path d="M9.9978 0.246582C4.62211 0.246582 0.248535 4.62016 0.248535 9.99585C0.248535 15.3715 4.62211 19.7451 9.9978 19.7451C15.3735 19.7451 19.7471 15.3715 19.7471 9.99585C19.7471 4.62016 15.3735 0.246582 9.9978 0.246582ZM9.9978 15.2412C9.81239 15.2412 9.63115 15.1863 9.47699 15.0832C9.32283 14.9802 9.20268 14.8338 9.13173 14.6625C9.06077 14.4912 9.04221 14.3028 9.07838 14.1209C9.11455 13.9391 9.20383 13.772 9.33493 13.6409C9.46604 13.5098 9.63307 13.4206 9.81491 13.3844C9.99676 13.3482 10.1852 13.3668 10.3565 13.4377C10.5278 13.5087 10.6742 13.6288 10.7772 13.783C10.8802 13.9372 10.9352 14.1184 10.9352 14.3038C10.9352 14.5524 10.8365 14.7909 10.6607 14.9667C10.4849 15.1425 10.2464 15.2412 9.9978 15.2412ZM11.0158 5.81304L10.7468 11.5314C10.7468 11.7303 10.6678 11.921 10.5271 12.0616C10.3865 12.2023 10.1958 12.2813 9.99686 12.2813C9.79796 12.2813 9.60721 12.2023 9.46657 12.0616C9.32593 11.921 9.24692 11.7303 9.24692 11.5314L8.97787 5.81585V5.81351C8.97198 5.67614 8.99394 5.539 9.04245 5.41034C9.09095 5.28169 9.16499 5.16418 9.2601 5.06489C9.35522 4.96561 9.46944 4.8866 9.5959 4.83262C9.72236 4.77865 9.85843 4.75082 9.99592 4.75082C10.1334 4.75082 10.2695 4.77865 10.3959 4.83262C10.5224 4.8866 10.6366 4.96561 10.7317 5.06489C10.8269 5.16418 10.9009 5.28169 10.9494 5.41034C10.9979 5.539 11.0199 5.67614 11.014 5.81351L11.0158 5.81304Z" fill="#202E39"/>
</svg>
